# Blender 5.0.1
# www.blender.org
mtllib 45 degree Ramp.mtl
o Cube
v 1.000000 1.000000 -1.000000
v 1.000000 -1.000000 -1.000000
v 1.000000 -1.000000 1.000000
v -1.000000 1.000000 -1.000000
v -1.000000 -1.000000 -1.000000
v -1.000000 -1.000000 1.000000
vn -0.0000 0.7071 0.7071
vn -0.0000 -1.0000 -0.0000
vn 1.0000 -0.0000 -0.0000
vn -0.0000 -0.0000 -1.0000
vn -1.0000 -0.0000 -0.0000
vt 0.375000 0.750000
vt 0.625000 0.750000
vt 0.625000 1.000000
vt 0.375000 1.000000
vt 0.125000 0.500000
vt 0.375000 0.500000
vt 0.125000 0.750000
vt 0.625000 0.500000
vt 0.375000 0.250000
vt 0.625000 0.250000
vt 0.375000 0.000000
s 0
usemtl Material
f 3/1/1 1/2/1 4/3/1 6/4/1
f 5/5/2 2/6/2 3/1/2 6/7/2
f 2/6/3 1/8/3 3/1/3
f 5/9/4 4/10/4 1/8/4 2/6/4
f 4/10/5 5/9/5 6/11/5
